<?xml version="1.0" encoding="UTF-8"?>
<svg width="128" height="128" fill="none" version="1.1" xmlns="http://www.w3.org/2000/svg">
 <g transform="matrix(5.7273 0 0 5.7273 -4.7287 -4.7201)">
  <ellipse cx="12" cy="12" rx="10.851" ry="10.853" fill="#ff8600" stroke="#000" stroke-width=".29747"/>
  <path d="m16.307 8.0638c-0.71342 0-1.2918 0.58091-1.2918 1.2974 0 0.71652 0.57838 1.2974 1.2918 1.2974 0.71342 0 1.2918-0.58091 1.2918-1.2974 0-0.71652-0.57838-1.2974-1.2918-1.2974z" fill="#ff0" stroke-width=".43153"/>
  <path d="m9.7882 8.3812-4.9255 8.1921h9.8514z" fill="#801609" stroke-width=".47882"/>
  <path d="m13.948 10.947-3.9548 5.6524h7.9099z" fill="#ab360c" stroke-width=".5286"/>
  <path d="m12.218 2.7509v-0.74209zm-8.6781 8.2454h-0.77491zm0 1.6491-0.54578 0.52678c0.30211 0.28704 0.78946 0.28704 1.0916 0zm2.2813-1.1223c0.30381-0.28862 0.30573-0.7585 0.0043-1.0494-0.30142-0.291-0.79208-0.29277-1.0959-0.0042zm-3.4712-1.0536c-0.30381-0.28862-0.79444-0.28685-1.0959 0.0042-0.30142 0.2909-0.29951 0.76078 0.00431 1.0494zm16.622-3.3722c0.2241 0.34914 0.70134 0.45817 1.066 0.24354 0.36451-0.21465 0.47838-0.67168 0.25428-1.0208zm-6.7539-5.0885c-5.2151 0-9.4529 4.0184-9.4529 8.9875h1.5498c0-4.1384 3.5326-7.5032 7.9032-7.5032zm-9.4529 8.9875v1.6491h1.5498v-1.6491zm1.3207 2.1759 1.7357-1.6491-1.0916-1.0536-1.7357 1.6491zm0-1.0536-1.7357-1.6491-1.0916 1.0536 1.7357 1.6491zm16.206-5.7986c-1.6598-2.5854-4.6558-4.3112-8.0739-4.3112v1.4842c2.8614 0 5.3663 1.4431 6.7539 3.6044z" fill="#fff" stroke-width="1.0111"/>
  <path d="m11.784 21.258v0.74209zm8.6781-8.2454h0.77491zm0-1.6491 0.54579-0.52678c-0.30211-0.28704-0.78946-0.28704-1.0916 0zm-2.2813 1.1223c-0.30381 0.28862-0.30573 0.7585-0.0043 1.0494 0.30142 0.291 0.79208 0.29277 1.0959 0.0042zm3.4712 1.0536c0.30381 0.28862 0.79444 0.28685 1.0959-0.0042 0.30142-0.2909 0.29951-0.76078-0.0043-1.0494zm-16.622 3.3722c-0.2241-0.34914-0.70134-0.45817-1.066-0.24354-0.36451 0.21465-0.47838 0.67168-0.25428 1.0208zm6.7539 5.0885c5.2151 0 9.4529-4.0184 9.4529-8.9875h-1.5498c0 4.1384-3.5326 7.5032-7.9032 7.5032zm9.4529-8.9875v-1.6491h-1.5498v1.6491zm-1.3207-2.1759-1.7357 1.6491 1.0916 1.0536 1.7357-1.6491zm0 1.0536 1.7357 1.6491 1.0916-1.0536-1.7357-1.6491zm-16.206 5.7986c1.6598 2.5854 4.6558 4.3112 8.0741 4.3112v-1.4842c-2.8614 0-5.3663-1.4431-6.7539-3.6044z" fill="#fff" stroke-width="1.0111"/>
 </g>
</svg>
