<?xml version="1.0" encoding="UTF-8"?>
<svg width="24" height="24" fill="none" version="1.1" xmlns="http://www.w3.org/2000/svg">
 <g transform="matrix(.17224 0 0 .17227 .97673 .97519)">
  <circle cx="64" cy="64" r="63" fill="#ff8600" stroke="#000" stroke-width="1.7269"/>
  <path d="m89.006 41.148c-4.142 0-7.5 3.3721-7.5 7.5314s3.358 7.5314 7.5 7.5314 7.5-3.3721 7.5-7.5314-3.358-7.5314-7.5-7.5314z" fill="#ff0" stroke-width="2.5052"/>
  <path d="m51.158 42.991-28.597 47.554h57.196z" fill="#801609" stroke-width="2.7797"/>
  <path d="m75.309 57.887-22.961 32.811h45.924z" fill="#ab360c" stroke-width="3.0687"/>
  <path d="m65.263 10.308v-4.3077zm-50.384 47.863h-4.499zm0 9.5728-3.1687 3.0579c1.754 1.6662 4.5835 1.6662 6.3375 0zm13.245-6.515c1.7639-1.6754 1.775-4.403 0.02496-6.0917-1.75-1.6892-4.5987-1.6995-6.3625-0.02413zm-20.153-6.1158c-1.7639-1.6754-4.6124-1.6651-6.3625 0.02413-1.75 1.6886-1.7389 4.4162 0.025014 6.0917zm96.504-19.575c1.3011 2.0267 4.0719 2.6596 6.1888 1.4137 2.1163-1.246 2.7774-3.899 1.4763-5.9257zm-39.212-29.538c-30.278 0-54.882 23.326-54.882 52.171h8.9981c0-24.023 20.51-43.555 45.885-43.555zm-54.882 52.171v9.5728h8.9981v-9.5728zm7.6678 12.631 10.077-9.5728-6.3376-6.1158-10.077 9.5728zm0-6.1158-10.077-9.5728-6.3375 6.1158 10.077 9.5728zm94.092-33.66c-9.6364-15.008-27.031-25.026-46.876-25.026v8.6154c16.613 0 31.156 8.3767 39.212 20.923z" fill="#fff" stroke-width="5.8698"/>
  <path d="m62.745 117.74v4.3077zm50.384-47.863h4.499zm0-9.5728 3.1688-3.0579c-1.754-1.6662-4.5835-1.6662-6.3375 0zm-13.245 6.515c-1.7639 1.6754-1.775 4.403-0.025 6.0917 1.75 1.6892 4.5987 1.6995 6.3625 0.0241zm20.153 6.1158c1.7639 1.6754 4.6124 1.6651 6.3625-0.0241 1.75-1.6886 1.7389-4.4162-0.025-6.0917zm-96.504 19.575c-1.3011-2.0267-4.0719-2.6596-6.1888-1.4137-2.1163 1.246-2.7774 3.899-1.4763 5.9257zm39.212 29.538c30.278 0 54.882-23.326 54.882-52.171h-8.9981c0 24.023-20.51 43.555-45.885 43.555zm54.882-52.171v-9.5728h-8.9981v9.5728zm-7.6678-12.631-10.077 9.5728 6.3376 6.1158 10.077-9.5728zm0 6.1158 10.077 9.5728 6.3375-6.1158-10.077-9.5728zm-94.092 33.66c9.6364 15.008 27.031 25.026 46.877 25.026v-8.6154c-16.613 0-31.156-8.3767-39.212-20.923z" fill="#fff" stroke-width="5.8698"/>
 </g>
</svg>
