<?xml version="1.0" encoding="UTF-8"?>
<svg width="128" height="128" fill="none" version="1.1" xmlns="http://www.w3.org/2000/svg">
 <g>
  <circle cx="64" cy="64" r="63" fill="#ff8600" stroke-width="1.7269"/>
  <path d="m89.006 41.148c-4.142 0-7.5 3.3721-7.5 7.5314s3.358 7.5314 7.5 7.5314 7.5-3.3721 7.5-7.5314-3.358-7.5314-7.5-7.5314z" fill="#ff0" stroke-width="2.5052"/>
  <path d="m51.158 42.991-28.597 47.554h57.196z" fill="#801609" stroke-width="2.7797"/>
  <path d="m75.309 57.887-22.961 32.811h45.924z" fill="#ab360c" stroke-width="3.0687"/>
  <path d="m61.253 118.74v4.3077zm49.364-47.863h4.3912zm0-9.5728 3.0867-3.0636c-1.7108-1.6587-4.4632-1.6587-6.174 0zm-12.96 6.5092c-1.7249 1.672-1.7413 4.3996-0.03627 6.0917 1.705 1.6921 4.4849 1.7081 6.2098 0.03561zm19.746 6.1273c1.7249 1.6725 4.5048 1.6565 6.2098-0.03561 1.705-1.6921 1.6886-4.4197-0.0362-6.0922zm-94.587 19.563c-1.2736-2.0246-3.9792-2.653-6.043-1.4032-2.0639 1.2492-2.7045 3.9033-1.4308 5.928zm38.437 29.544c29.639 0 53.755-23.31 53.755-52.171h-8.7824c0 24.008-20.087 43.555-44.973 43.555zm53.755-52.171v-9.5728h-8.7824v9.5728zm-7.4785-12.636-9.8726 9.5728 6.1735 6.1273 9.8732-9.5728zm0 6.1273 9.8732 9.5728 6.1734-6.1278-9.8726-9.5723zm-92.187 33.66c9.4417 15.009 26.48 25.02 45.91 25.02v-8.6154c-16.291 0-30.545-8.3839-38.437-20.929z" fill="#1c274c" opacity=".5" stroke-width="5.799"/>
  <path d="m66.403 10.308v-4.3077zm-49.176 47.863h-4.3912zm0 9.5728-3.0928 3.0579c1.712 1.6662 4.4736 1.6662 6.1856 0zm12.928-6.515c1.7216-1.6754 1.7325-4.403 0.02436-6.0917-1.7081-1.6892-4.4885-1.6995-6.21-0.02413zm-19.67-6.1158c-1.7216-1.6754-4.5019-1.6651-6.21 0.02413-1.7081 1.6886-1.6972 4.4162 0.024415 6.0917zm94.191-19.575c1.2699 2.0267 3.9743 2.6596 6.0405 1.4137 2.0656-1.246 2.7108-3.899 1.4409-5.9257zm-38.272-29.538c-29.552 0-53.567 23.326-53.567 52.171h8.7824c0-24.023 20.018-43.555 44.785-43.555zm-53.567 52.171v9.5728h8.7824v-9.5728zm7.484 12.631 9.8352-9.5728-6.1857-6.1158-9.8352 9.5728zm0-6.1158-9.8352-9.5728-6.1856 6.1158 9.8352 9.5728zm91.837-33.66c-9.4054-15.008-26.383-25.026-45.753-25.026v8.6154c16.215 0 30.409 8.3767 38.272 20.923z" fill="#1c274c" stroke-width="5.799"/>
 </g>
</svg>
