<?xml version="1.0" encoding="UTF-8"?>
<svg width="24" height="24" version="1.1" xmlns="http://www.w3.org/2000/svg">
<circle cx="12" cy="12" r="11.322" fill="#fcb63d" stroke="#000" stroke-width=".95614"/><path class="cls-1" d="m14.316 3.2288c0.77147 0.23166 1.5084 0.56569 2.1912 0.99318l1.1793-1.1857c0.57037-0.56768 1.492-0.56768 2.0623 0l1.2082 1.2145c0.5674 0.57065 0.5674 1.4927 0 2.0634l-1.2697 1.2703c0.36599 0.66317 0.64654 1.3701 0.83494 2.1038h1.8315c0.809-0.0022 1.466 0.65342 1.466 1.4628v1.713c-0.0021 0.80489-0.65376 1.4569-1.4583 1.459h-1.8488c-0.19251 0.72589-0.47493 1.4249-0.84071 2.0807l1.2851 1.2915c0.5674 0.57065 0.5674 1.4927 0 2.0634l-1.2062 1.2088c-0.57102 0.5679-1.4932 0.5679-2.0643 0l-1.2197-1.2222c-0.67275 0.413-1.3964 0.73652-2.1528 0.96238v1.6534c-0.0021 0.80489-0.65376 1.4569-1.4583 1.459h-1.7103c-0.8045-0.0021-1.4561-0.65408-1.4583-1.459v-1.4936c-0.83012-0.18784-1.6299-0.49105-2.3759-0.90079l-1.0004 1.0009c-0.57123 0.56558-1.4911 0.56558-2.0623 0l-1.2139-1.2145c-0.56635-0.57108-0.56635-1.4923 0-2.0634l0.90805-0.90849c-0.47562-0.76212-0.83607-1.5904-1.0696-2.4579h-1.2351c-0.8045-0.0021-1.4561-0.65408-1.4583-1.459v-1.713c-3e-6 -0.80639 0.65226-1.4607 1.4583-1.4628h1.2216c0.22704-0.87852 0.58434-1.7181 1.06-2.4907l-0.88496-0.88347c-0.56531-0.57151-0.56531-1.4918 0-2.0634l1.2139-1.2145c0.57037-0.56768 1.492-0.56768 2.0623 0l0.96192 0.96238c0.75433-0.42537 1.5663-0.73916 2.4106-0.93159v-1.4282c0.0022-0.80639 0.65611-1.459 1.4621-1.459h1.7122c0.8045 0.002116 1.4561 0.65408 1.4583 1.459zm-2.4529 3.0357c5.2349 2e-7 7.8551 6.3324 4.1531 10.035-3.7019 3.7022-10.03 1.0782-10.028-4.1592 0-3.2458 2.6307-5.8767 5.8749-5.8754z" fill="#fff" fill-rule="evenodd" stroke-width=".19243"/>
</svg>
