<?xml version="1.0" encoding="UTF-8"?>
<svg width="24" height="24" version="1.1" viewBox="0 0 24 24" xml:space="preserve" xmlns="http://www.w3.org/2000/svg">
<circle cx="12" cy="12" r="10.655" fill="#fcb63d" stroke="#000" stroke-linecap="round" stroke-width=".68969"/><g transform="matrix(.93258 0 0 .93258 .81627 .80692)" fill="#fff"><g stroke-width=".042213"><path d="m12 16.072c2.5996 0 4.7068-2.1338 4.7068-4.7658 0-0.23736-0.02286-0.46872-0.05601-0.69668l-5.339 5.4059c0.2252 0.03352 0.45366 0.05641 0.68809 0.05641z"/><path d="m4.161 16.884 1.8599-1.883c-1.0442-0.6387-1.9928-1.4435-2.8008-2.3947 1.2244-1.4417 2.771-2.5492 4.4866-3.2462-0.26341 0.59474-0.41335 1.2524-0.41335 1.9465 0 0.70496 0.15505 1.372 0.42644 1.9741l1.502-1.5204c-0.23904-0.23761-0.38797-0.56747-0.38797-0.93348 0-0.72293 0.57897-1.3091 1.2929-1.3091 0.36124 0 0.68729 0.15079 0.92172 0.39282l1.3649-1.3819 1.537-1.5558 0.77048-0.7804c-0.88962-0.1778-1.7996-0.27478-2.7204-0.27478-4.5166 0-8.7986 2.2153-11.454 5.9261l-0.54579 0.76264 0.54583 0.76272c0.99924 1.3962 2.2293 2.5805 3.6152 3.5151z"/><path d="m19.264 7.9639-1.8817 1.9051c1.2812 0.68263 2.4381 1.6076 3.3975 2.737-2.1885 2.5766-5.4045 4.0892-8.7802 4.0892-0.4321 0-0.86139-0.02549-1.2863-0.07407l-2.1973 2.2247c1.1286 0.29252 2.2974 0.44896 3.4835 0.44896 4.5166 0 8.7989-2.2153 11.454-5.9263l0.54583-0.76274-0.54583-0.76268c-1.1353-1.5857-2.5693-2.8959-4.19-3.8792z"/></g><path d="m10.687 15.079 6.7203-6.8042 3.0092-3.047c0.4697-0.47557 0.4697-1.2467 0-1.7222-0.2348-0.23769-0.54276-0.35674-0.85053-0.35674s-0.61575 0.11883-0.85048 0.35674l-3.7572 3.8043-7.3443 7.4361-1.5627 1.5821-2.435 2.4652c-0.4697 0.47557-0.4697 1.2467 0 1.7222 0.23476 0.23774 0.54276 0.35678 0.85053 0.35678s0.61575-0.11886 0.85053-0.35678l4.8204-4.8806z" stroke-width=".034898"/></g>
</svg>
