<?xml version="1.0" encoding="UTF-8"?>
<svg width="128" height="128" version="1.1" fill="none" xmlns="http://www.w3.org/2000/svg">
 <g stroke-width="1.7439">
  <path d="m89.75 96.087h-53.109c-3.6513 0-6.6387-3.2984-6.6387-7.3297v-47.643c0-4.0313 2.9874-7.3297 6.6387-7.3297h53.109c3.6513 0 6.6387 3.2983 6.6387 7.3297v47.643c0 4.0313-2.9874 7.3297-6.6387 7.3297z" fill="#f57c00"/>
  <path d="m81.452 44.777c-2.7497 0-4.979 2.4613-4.979 5.4972s2.2293 5.4972 4.979 5.4972 4.979-2.4613 4.979-5.4972-2.2293-5.4972-4.979-5.4972z" fill="#fff9c4"/>
  <path d="m56.561 50.277-18.256 29.319h36.513z" fill="#942a09"/>
  <path d="m74.813 61.267-13.277 18.324h26.555z" fill="#bf360c"/>
 </g>
 <g fill="#1565c0" stroke-width="2.8775">
  <path d="m28.04 36.909c0-8.55 8.6289-15.545 19.175-15.545h31.959c10.546 0 19.175 6.9954 19.175 15.545h12.783c0-14.25-14.381-25.909-31.959-25.909h-31.959c-17.577 0-31.959 11.659-31.959 25.909v29.018h12.784z"/>
  <path d="m2 65.367 20.454 21.764 20.454-21.764z"/>
  <path d="m98.35 91.647c0 8.55-8.6289 15.545-19.175 15.545h-31.959c-10.546 0-19.175-6.9954-19.175-15.545h-12.784c0 14.25 14.381 25.909 31.959 25.909h31.959c17.577 0 31.959-11.659 31.959-25.909v-31.091h-12.783z"/>
  <path d="m85 62.497 20.454-21.764 20.454 21.764z"/>
 </g>
</svg>
