<?xml version="1.0" encoding="UTF-8"?>
<svg width="24" height="24" version="1.1" viewBox="0 0 24 24" xml:space="preserve" xmlns="http://www.w3.org/2000/svg">
<g transform="matrix(1.0567 0 0 1.0577 -.68002 -.6816)"><circle cx="12" cy="12" r="11" fill="#fcb63d" stroke="#000" stroke-linecap="round" stroke-width=".712"/><g transform="matrix(1.1233 0 0 1.1233 -.175 -1.8975)" fill="#fff" stroke-width=".046574"><path d="m17.092 4.8009c-1.7791 6.307e-4 -3.5581 0.0011-5.3372 0.0018-1.6837 4.648e-4 -1.6746 2.6135 0.01314 2.6129 0.72512-2.569e-4 1.4503-5.138e-4 2.1756-6.39e-4l-4.2848 4.2848c-1.1934 1.1934 0.64329 3.0511 1.8339 1.8605l4.2983-4.2983-7.77e-4 2.1902c-7.29e-4 1.6837 2.6123 1.6728 2.6129-0.01499 7.62e-4 -1.779 0.0014-3.5578 2e-3 -5.3369 8.8e-5 -0.71442-0.60439-1.2995-1.3132-1.2991z"/><path d="m4.5845 19.943c1.7791-6.31e-4 3.5581-0.0011 5.3372-0.0018 1.6837-4.65e-4 1.6746-2.6135-0.01314-2.6129-0.72512 2.57e-4 -1.4503 5.13e-4 -2.1756 6.39e-4l4.2848-4.2848c1.1934-1.1934-0.64329-3.0511-1.8339-1.8605l-4.2983 4.2983 7.77e-4 -2.1902c7.29e-4 -1.6837-2.6123-1.6728-2.6129 0.01499-7.62e-4 1.779-0.0014 3.5578-2e-3 5.3369-8.8e-5 0.71442 0.60439 1.2995 1.3132 1.2991z"/>
</g></g>
</svg>
